<?xml version="1.0" encoding="UTF-8"?>
<svg width="210mm" height="297mm" version="1.1" viewBox="0 0 210 297" xmlns="http://www.w3.org/2000/svg" xmlns:cc="http://creativecommons.org/ns#" xmlns:dc="http://purl.org/dc/elements/1.1/" xmlns:rdf="http://www.w3.org/1999/02/22-rdf-syntax-ns#">
 <metadata>
  <rdf:RDF>
   <cc:Work rdf:about="">
    <dc:format>image/svg+xml</dc:format>
    <dc:type rdf:resource="http://purl.org/dc/dcmitype/StillImage"/>
    <dc:title/>
   </cc:Work>
  </rdf:RDF>
 </metadata>
 <g>
  <path d="m56.914 109.87q0.77893 0.16933 1.1966 0.67733 0.42898 0.49671 0.42898 1.2869 0 1.016-0.75636 1.5692-0.74507 0.54187-2.2126 0.54187h-3.635v-7.9022h3.4092q1.3208 0 2.0433 0.53058 0.73378 0.53058 0.73378 1.5014 0 0.65476-0.32738 1.1176-0.31609 0.45156-0.88053 0.67734zm-4.143-3.1383v2.8674h2.5174q0.95956 0 1.4788-0.36124 0.51929-0.37253 0.51929-1.0724 0-0.69991-0.51929-1.0612-0.51929-0.37254-1.4788-0.37254zm2.7884 6.525q1.0612 0 1.603-0.36125 0.54187-0.36124 0.54187-1.1289 0-1.4788-2.1449-1.4788h-2.7884v2.969z" style="font-variant-caps:normal;font-variant-east-asian:normal;font-variant-ligatures:normal;font-variant-numeric:normal;shape-inside:url(#rect18);white-space:pre"/>
  <path d="m65.842 113.94-1.8062-2.54q-0.3048 0.0339-0.63218 0.0339h-2.1223v2.5061h-0.83538v-7.9022h2.9577q1.5127 0 2.3707 0.72249 0.85796 0.72249 0.85796 1.9868 0 0.92569-0.47413 1.5692-0.46284 0.63218-1.3321 0.91441l1.9304 2.7093zm-2.461-3.2173q1.174 0 1.7949-0.51928 0.62089-0.51929 0.62089-1.4563 0-0.95956-0.62089-1.4676-0.62089-0.51929-1.7949-0.51929h-2.0997v3.9624z" style="font-variant-caps:normal;font-variant-east-asian:normal;font-variant-ligatures:normal;font-variant-numeric:normal;shape-inside:url(#rect18);white-space:pre"/>
  <path d="m73.56 111.83h-4.4027l-0.94827 2.111h-0.86925l3.6124-7.9022h0.82409l3.6124 7.9022h-0.88053zm-0.3048-0.67734-1.8965-4.2446-1.8965 4.2446z" style="font-variant-caps:normal;font-variant-east-asian:normal;font-variant-ligatures:normal;font-variant-numeric:normal;shape-inside:url(#rect18);white-space:pre"/>
  <path d="m83.3 106.04v7.9022h-0.68862l-5.08-6.4121v6.4121h-0.83538v-7.9022h0.68862l5.0913 6.4121v-6.4121z" style="font-variant-caps:normal;font-variant-east-asian:normal;font-variant-ligatures:normal;font-variant-numeric:normal;shape-inside:url(#rect18);white-space:pre"/>
  <path d="m85.868 106.04h3.2173q1.2531 0 2.2126 0.508 0.95956 0.49671 1.4901 1.3998 0.53058 0.89182 0.53058 2.0433 0 1.1515-0.53058 2.0546-0.53058 0.89182-1.4901 1.3998-0.95956 0.49671-2.2126 0.49671h-3.2173zm3.1722 7.1797q1.0386 0 1.8175-0.4064 0.77893-0.41769 1.2079-1.1402 0.42898-0.73378 0.42898-1.682 0-0.94827-0.42898-1.6708-0.42898-0.73378-1.2079-1.1402-0.77893-0.41769-1.8175-0.41769h-2.3368v6.4572z" style="font-variant-caps:normal;font-variant-east-asian:normal;font-variant-ligatures:normal;font-variant-numeric:normal;shape-inside:url(#rect18);white-space:pre"/>
  <path d="m100.78 113.22v0.72249h-5.588v-7.9022h5.4187v0.72249h-4.5833v2.8109h4.0866v0.7112h-4.0866v2.9351z" style="font-variant-caps:normal;font-variant-east-asian:normal;font-variant-ligatures:normal;font-variant-numeric:normal;shape-inside:url(#rect18);white-space:pre"/>
  <path d="m104.94 114.01q-0.88053 0-1.6933-0.28222-0.80152-0.28222-1.2418-0.74507l0.32738-0.64346q0.42897 0.42898 1.1402 0.69991 0.71121 0.25964 1.4676 0.25964 1.0612 0 1.5917-0.38382 0.53057-0.39511 0.53057-1.016 0-0.47413-0.29351-0.75636-0.28222-0.28222-0.69991-0.42897-0.41769-0.15805-1.1628-0.33867-0.89182-0.22578-1.4224-0.42898-0.53057-0.21449-0.9144-0.64347-0.37253-0.42897-0.37253-1.1628 0-0.59832 0.31609-1.0837 0.31609-0.49671 0.97084-0.79022 0.65476-0.29351 1.6256-0.29351 0.67733 0 1.3208 0.19191 0.65475 0.18062 1.1289 0.508l-0.28223 0.66604q-0.49671-0.32737-1.0612-0.48542-0.56445-0.16933-1.1063-0.16933-1.0386 0-1.5692 0.4064-0.51929 0.39511-0.51929 1.0273 0 0.47413 0.28222 0.76764 0.29351 0.28223 0.72249 0.44027 0.44027 0.14676 1.174 0.32738 0.86924 0.21449 1.3998 0.42898 0.54187 0.2032 0.9144 0.63218 0.37253 0.41769 0.37253 1.1402 0 0.59832-0.32737 1.095-0.31609 0.48542-0.98214 0.77893-0.66604 0.28222-1.6369 0.28222z" style="font-variant-caps:normal;font-variant-east-asian:normal;font-variant-ligatures:normal;font-variant-numeric:normal;shape-inside:url(#rect18);white-space:pre"/>
  <path d="m119.26 106.04v7.9022h-0.68862l-5.08-6.4121v6.4121h-0.83538v-7.9022h0.68862l5.0913 6.4121v-6.4121z" style="font-variant-caps:normal;font-variant-east-asian:normal;font-variant-ligatures:normal;font-variant-numeric:normal;shape-inside:url(#rect18);white-space:pre"/>
  <path d="m127.42 113.22v0.72249h-5.588v-7.9022h5.4187v0.72249h-4.5833v2.8109h4.0866v0.7112h-4.0866v2.9351z" style="font-variant-caps:normal;font-variant-east-asian:normal;font-variant-ligatures:normal;font-variant-numeric:normal;shape-inside:url(#rect18);white-space:pre"/>
  <path d="m140.13 106.04-2.6642 7.9022h-0.88054l-2.3142-6.7395-2.3255 6.7395h-0.86925l-2.6642-7.9022h0.85796l2.2804 6.7959 2.3594-6.7959h0.77894l2.3255 6.8298 2.3142-6.8298z" style="font-variant-caps:normal;font-variant-east-asian:normal;font-variant-ligatures:normal;font-variant-numeric:normal;shape-inside:url(#rect18);white-space:pre"/>
  <path d="m155.63 106.04-2.6642 7.9022h-0.88054l-2.3142-6.7395-2.3255 6.7395h-0.86925l-2.6642-7.9022h0.85796l2.2804 6.7959 2.3594-6.7959h0.77893l2.3255 6.8298 2.3142-6.8298z" style="font-variant-caps:normal;font-variant-east-asian:normal;font-variant-ligatures:normal;font-variant-numeric:normal;shape-inside:url(#rect18);white-space:pre"/>
  <path d="m160.54 114.01q-1.174 0-2.1336-0.51928-0.94827-0.53058-1.4901-1.445-0.53058-0.9144-0.53058-2.0546t0.53058-2.0546q0.54187-0.9144 1.4901-1.4337 0.95955-0.53058 2.1336-0.53058 1.174 0 2.111 0.51929 0.94827 0.51929 1.4901 1.445 0.54186 0.9144 0.54186 2.0546t-0.54186 2.0659q-0.54187 0.9144-1.4901 1.4337-0.93698 0.51928-2.111 0.51928zm0-0.74506q0.93698 0 1.6933-0.41769 0.75636-0.42898 1.1853-1.174 0.42898-0.75635 0.42898-1.682t-0.42898-1.6708q-0.42898-0.75636-1.1853-1.174-0.75635-0.42897-1.6933-0.42897t-1.7046 0.42897q-0.75635 0.41769-1.1966 1.174-0.42898 0.74507-0.42898 1.6708t0.42898 1.682q0.44027 0.74507 1.1966 1.174 0.76765 0.41769 1.7046 0.41769z" style="font-variant-caps:normal;font-variant-east-asian:normal;font-variant-ligatures:normal;font-variant-numeric:normal;shape-inside:url(#rect18);white-space:pre"/>
  <path d="m171.96 113.94-1.8062-2.54q-0.3048 0.0339-0.63218 0.0339h-2.1223v2.5061h-0.83537v-7.9022h2.9577q1.5127 0 2.3707 0.72249 0.85795 0.72249 0.85795 1.9868 0 0.92569-0.47413 1.5692-0.46285 0.63218-1.3321 0.91441l1.9304 2.7093zm-2.461-3.2173q1.174 0 1.7949-0.51928 0.62089-0.51929 0.62089-1.4563 0-0.95956-0.62089-1.4676-0.62089-0.51929-1.7949-0.51929h-2.0997v3.9624z" style="font-variant-caps:normal;font-variant-east-asian:normal;font-variant-ligatures:normal;font-variant-numeric:normal;shape-inside:url(#rect18);white-space:pre"/>
  <path d="m177.17 110.23-1.6143 1.6369v2.0772h-0.83538v-7.9022h0.83538v4.7752l4.6397-4.7752h0.95956l-3.4205 3.5786 3.6576 4.3236h-0.99342z" style="font-variant-caps:normal;font-variant-east-asian:normal;font-variant-ligatures:normal;font-variant-numeric:normal;shape-inside:url(#rect18);white-space:pre"/>
 </g>
</svg>
